<?xml version="1.0" encoding="utf-8"?>
<!-- Generator: Adobe Illustrator 16.0.0, SVG Export Plug-In . SVG Version: 6.00 Build 0)  -->
<!DOCTYPE svg PUBLIC "-//W3C//DTD SVG 1.1//EN" "http://www.w3.org/Graphics/SVG/1.1/DTD/svg11.dtd">
<svg version="1.1" id="Layer_1" xmlns="http://www.w3.org/2000/svg" xmlns:xlink="http://www.w3.org/1999/xlink" x="0px" y="0px"
	 width="370px" height="370px" viewBox="0 0 370 370" enable-background="new 0 0 370 370" xml:space="preserve">
<g>
	<g>
		<g>
			<radialGradient id="SVGID_1_" cx="185.0005" cy="185" r="164.9993" gradientUnits="userSpaceOnUse">
				<stop  offset="0.0056" style="stop-color:#D7F0FC"/>
				<stop  offset="0.4494" style="stop-color:#ABE1FA"/>
				<stop  offset="1" style="stop-color:#96CFF1"/>
			</radialGradient>
			<path fill="url(#SVGID_1_)" d="M46.626,120.707l74.065-74.085c35.527-35.493,93.106-35.493,128.609,0l74.06,74.085
				c35.522,35.5,35.522,93.079,0,128.623l-74.053,74.051c-35.522,35.49-93.089,35.49-128.609,0L46.626,249.33
				C11.125,213.771,11.125,156.2,46.626,120.707z"/>
		</g>
	</g>
</g>
<g>
	<defs>
		<path id="SVGID_2_" d="M46.626,120.707l74.065-74.085c35.527-35.493,93.106-35.493,128.609,0l74.06,74.085
			c35.522,35.5,35.522,93.079,0,128.623l-74.053,74.051c-35.522,35.49-93.089,35.49-128.609,0L46.626,249.33
			C11.125,213.771,11.125,156.2,46.626,120.707z"/>
	</defs>
	<clipPath id="SVGID_3_">
		<use xlink:href="#SVGID_2_"  overflow="visible"/>
	</clipPath>
	<path clip-path="url(#SVGID_3_)" fill="#004B85" d="M104.607,350.441c0.002,4.658-3.809,8.472-8.467,8.47l0,0
		c-4.658,0.001-8.471-3.812-8.47-8.47v-10.404c0-2.965-2.427-5.393-5.388-5.387l0,0c-2.965-0.004-5.391,2.424-5.39,5.39L76.89,397.5
		l0,0h224.094l0.001-81.426c0.001-25.096-20.535-45.633-45.634-45.631l0,0c-25.097,0-45.631,20.531-45.631,45.633l0,0
		c0,10.609-8.686,19.293-19.299,19.293l0,0c-10.613-0.001-19.295-8.684-19.295-19.296l0.002-2.294
		c-0.001-11.033-9.03-20.063-20.059-20.06l0,0c-11.036-0.002-20.063,9.025-20.062,20.058l0.001,7.046
		c-0.002,4.296-3.516,7.81-7.811,7.811l0,0c-4.297,0-7.81-3.515-7.811-7.811 M117.389,297.521c-0.002,2.979-2.415,5.388-5.391,5.393
		c-2.976-0.001-5.389-2.415-5.393-5.396c0.003-2.974,2.417-5.386,5.392-5.389C114.974,292.131,117.389,294.546,117.389,297.521z"/>
</g>
<path fill="#004B85" d="M147.598,224.827c4.763,4.772,10.331,8.504,16.647,11.169c6.328,2.672,12.855,4.004,19.592,4.004
	c7.843,0,14.649-1.107,20.481-3.249v-19.149c-5.9,2.904-11.935,4.485-18.15,4.485c-5.07,0-9.728-0.909-14.024-2.745
	c-4.286-1.82-8.008-4.382-11.157-7.682c-3.173-3.303-5.631-7.237-7.39-11.801c-1.755-4.564-2.63-9.658-2.63-15.281
	c0-10.821,3.229-19.636,9.696-26.44c6.469-6.816,14.679-10.22,24.653-10.22c9.978,0,18.133,3.404,24.448,10.22
	c6.322,6.804,9.488,15.833,9.488,27.078V240h18.958v-46.361c0-3.65-0.024-6.949-0.104-9.903c-0.062-2.947-0.248-5.753-0.524-8.431
	c-0.28-2.659-0.815-5.337-1.585-8.002c-0.76-2.672-1.924-5.551-3.479-8.645c-4.347-8.986-10.81-16.017-19.386-21.071
	c-8.567-5.056-17.911-7.587-28.023-7.587c-7.593,0-14.645,1.363-21.181,4.108c-6.53,2.738-12.191,6.529-16.965,11.377
	c-4.773,4.854-8.517,10.648-11.163,17.385c-2.672,6.749-4.01,14.127-4.01,22.124c0,8.297,1.436,15.814,4.327,22.559
	C138.991,214.294,142.818,220.051,147.598,224.827z"/>
</svg>
